<?xml version="1.0" encoding="UTF-8" standalone="no"?>
<svg
   width="64"
   height="64"
   viewBox="0 0 64.000001 64.000002"
   version="1.1"
   id="svg3"
   sodipodi:docname="Setting-Icon-SVG-03mcds.svg"
   inkscape:version="1.2.2 (1:1.2.2+202305151914+b0a8486541)"
   xmlns:inkscape="http://www.inkscape.org/namespaces/inkscape"
   xmlns:sodipodi="http://sodipodi.sourceforge.net/DTD/sodipodi-0.dtd"
   xmlns="http://www.w3.org/2000/svg"
   xmlns:svg="http://www.w3.org/2000/svg">
  <defs
     id="defs7" />
  <sodipodi:namedview
     id="namedview5"
     pagecolor="#ffffff"
     bordercolor="#666666"
     borderopacity="1.0"
     inkscape:showpageshadow="2"
     inkscape:pageopacity="0.0"
     inkscape:pagecheckerboard="true"
     inkscape:deskcolor="#d1d1d1"
     showgrid="false"
     inkscape:zoom="7.0761577"
     inkscape:cx="30.948999"
     inkscape:cy="31.160979"
     inkscape:window-width="1920"
     inkscape:window-height="1056"
     inkscape:window-x="0"
     inkscape:window-y="0"
     inkscape:window-maximized="1"
     inkscape:current-layer="svg3" />
  <path
     id="Setting-Icon-SVG-03mcds"
     d="m 61.075499,26.585 -5.458,-2.091 a 2.911,2.911 0 0 1 -1.612,-3.9 l 2.376,-5.329 a 2.894,2.894 0 0 0 -0.6,-3.244 l -3.81,-3.8169998 a 2.905,2.905 0 0 0 -3.244,-0.6 l -5.328,2.387 a 2.914,2.914 0 0 1 -3.9,-1.619 l -2.089,-5.452 a 2.911,2.911 0 0 0 -2.72,-1.871 h -5.393 a 2.911,2.911 0 0 0 -2.719,1.871 l -2.085,5.452 a 2.914,2.914 0 0 1 -3.9,1.619 l -5.333,-2.383 a 2.905,2.905 0 0 0 -3.244,0.6 L 8.2024991,12.017 a 2.907,2.907 0 0 0 -0.6,3.244 l 2.383,5.329 a 2.909,2.909 0 0 1 -1.619,3.9 l -5.445,2.091 a 2.9,2.9 0 0 0 -1.871,2.713 v 5.4 a 2.9,2.9 0 0 0 1.871,2.713 l 5.445,2.085 a 2.918,2.918 0 0 1 1.619,3.911 l -2.385,5.325 a 2.907,2.907 0 0 0 0.6,3.244 l 3.8139999,3.82 a 2.916,2.916 0 0 0 3.244,0.6 l 5.329,-2.376 a 2.9,2.9 0 0 1 3.9,1.619 l 2.085,5.445 a 2.911,2.911 0 0 0 2.719,1.871 h 5.393 a 2.911,2.911 0 0 0 2.719,-1.871 l 2.085,-5.445 a 2.9,2.9 0 0 1 3.9,-1.619 l 5.344,2.372 a 2.916,2.916 0 0 0 3.244,-0.6 l 3.814,-3.82 a 2.894,2.894 0 0 0 0.6,-3.244 l -2.376,-5.322 a 2.92,2.92 0 0 1 1.612,-3.911 l 5.458,-2.085 a 2.9,2.9 0 0 0 1.865,-2.713 v -5.4 a 2.9,2.9 0 0 0 -1.865,-2.713 m -26.394,18.943 a 13.792,13.792 0 1 1 10.826,-10.825 13.805,13.805 0 0 1 -10.826,10.825"
     fill-rule="evenodd"
     style="fill:#ffffff;fill-opacity:1" />
</svg>
